<?xml version="1.0" encoding="UTF-8"?>
<!DOCTYPE svg PUBLIC "-//W3C//DTD SVG 1.1//EN" "http://www.w3.org/Graphics/SVG/1.1/DTD/svg11.dtd">
<!-- Creator: CorelDRAW (Versão de avaliação) -->
<svg xmlns="http://www.w3.org/2000/svg" xml:space="preserve" width="297mm" height="210mm" version="1.1" style="shape-rendering:geometricPrecision; text-rendering:geometricPrecision; image-rendering:optimizeQuality; fill-rule:evenodd; clip-rule:evenodd"
viewBox="0 0 29700 21000"
 xmlns:xlink="http://www.w3.org/1999/xlink"
 xmlns:xodm="http://www.corel.com/coreldraw/odm/2003">
 <defs>
  <style type="text/css">
   <![CDATA[
    .fil1 {fill:none}
    .fil0 {fill:#005E4E}
   ]]>
  </style>
   <clipPath id="id0">
    <path d="M7902.2 7728.77l0 0c-358.91,824.27 -508.47,2223.7 -435.07,3126.31 59.53,731.98 252.98,1472.76 512.53,2109.32 291.74,715.53 707.74,1321.3 1175.84,1919.42 341.4,436.2 921.45,956.43 1383.17,1275.08 1770.39,1221.74 3782.65,1708.17 5936.4,1304.55 533.32,-99.92 930.14,-226.68 1378.81,-405.48 881.19,-351.15 1469.9,-752.17 2165.59,-1366.63 302.73,-267.4 594.69,-576.96 841.33,-906.57 454.7,-607.67 406.22,-632.6 696.88,-1075.55 113.04,-254.96 221.19,-457.05 333.02,-734.9 106.78,-265.28 183.67,-507.23 264.36,-828.06 168.01,-667.88 203.77,-1146.38 203.77,-1971.64 0,-953.85 -325.48,-2080.54 -655.47,-2704.18 -148.03,34.48 -2295.35,1211.56 -2695.17,1419.69 -153.42,79.87 -274.85,156.51 -448.64,243.23 -175.09,87.44 -308.28,164.75 -488.9,230.63l-1590.22 785.5c-255.16,114.1 -1229.93,589.79 -1331.73,598.26 60.69,-82.81 238.13,-167.98 348.4,-234.25l377.13 -239.15 1307.1 -770.71c131.07,-79.79 119.45,-33.07 188.7,-155.86 137.49,-2.72 198.72,-77.46 379.9,-186.51l727.31 -437.96c133.7,-87.91 254.11,-165.97 389.94,-233.26 215.52,-155.85 393.19,-190.76 469.23,-363.98 89.62,21.82 19.78,56.21 243.77,-83.41l583.45 -361.43c123.36,-85.73 53.46,12.78 119.56,-137.78 132.05,32.13 105.25,7.68 218.95,-71.23 78.82,-54.65 111.83,-70.8 202.63,-126.44l2484.53 -1557.47c127.43,-80.21 328.59,-176.4 407.61,-284.26 -38.53,-165.4 -314.6,-554.69 -426.34,-697.91l-279.67 -383.1c-88.28,-109.65 -83.75,-83.27 -131.51,-84.46 -28.45,-158.57 19.15,-55.79 -176.51,-296.95 -57.23,-70.52 -136.93,-166.19 -224.05,-191.13 -28.7,-138.68 -2.35,-78.19 -98.17,-179.88 -51.23,-54.37 -93.1,-87.74 -147.64,-142.08 -105.34,-105 -183.82,-208.58 -307.38,-282.22 -70.97,-117.46 -747.51,-654.98 -903.65,-764.46 -167.13,-117.23 -310.97,-229.23 -497.94,-339.58 -185.46,-109.48 -349.98,-243.01 -548.02,-316.11 -270.77,-252.94 -1485.77,-708.04 -1953.08,-860.7 -1365.44,-446.03 -3017,-581.8 -4459.19,-407.3 -195.35,23.66 -436.08,58.34 -625.6,102.7 -954.39,223.52 -746.04,159.15 -1679.55,468.9 -135.32,44.94 -403.45,171.78 -505.31,186.77l-1020.07 509.18c-783.58,405.04 -1742.73,1202.27 -2338.98,1848.7 -248.95,269.92 -295.02,290.52 -542.36,622.91l-328.23 436.45c-478.76,645.07 -1343.76,2351.14 -1451.03,3100.98 -85.76,280.89 -148.32,636.26 -202.94,962.16 -460.17,2745.21 221.44,5353.83 1857.17,7543.11 381.72,510.91 913.03,1070.95 1376.83,1499.93l620.69 508.14c240.74,179.73 430.57,315.19 688.7,476.57 123.16,76.98 198.86,140.73 332.96,213.26 386.99,209.34 746.24,423.56 1157.59,590.32 897.45,363.79 1651.31,602.68 2632.54,754.03 351.17,54.15 721.9,69.84 1050.61,114.66 1059.19,144.36 3019.41,-214.22 4000.35,-568.03 1048.23,-378.09 2125.08,-990.18 2919.99,-1631.84 219.86,-177.47 401.04,-332.85 598.46,-530.41 479.29,-479.66 662.12,-654.58 1080.7,-1213.4 92.73,-123.79 162.82,-209.94 246.97,-335.68 89.53,-133.79 144.72,-226.55 246.32,-371.78 59.04,-125.56 122.17,-208.89 183.45,-327.29 537.69,-1038.85 833.25,-1674.71 1089.23,-2952.83 200.11,-999.33 236.71,-2145.53 115.14,-3204.84 -40.03,-349.02 -111.6,-658.83 -156.88,-980.03 -70.43,-233.26 -105.62,-424.28 -169.42,-623.62 -67.06,-209.46 -110.41,-386.03 -186.63,-578.12l-436.99 -1092.4c-148.63,34.62 -638.49,345.77 -794.04,444.05 -154.66,97.75 -690.87,392.31 -771.79,502.72 90.35,387.81 478.1,937.6 645.12,2195.23 56.44,424.9 90.44,869.49 84.63,1338.47l-52.75 675.52c-28.42,199.8 -43.3,455.21 -94.35,612.43 -18.27,274.11 -204.08,938.33 -291.34,1166.51 -143.93,486.66 -484.17,1148.05 -739.75,1574.62 -164.16,273.97 -283.58,453.34 -467.17,698.1 -1293.19,1724.18 -3157.36,2667.78 -5294.7,3007.85 -1300.67,206.94 -2963.4,-2.89 -4173.74,-447.68 -599.94,-220.42 -1087.73,-467.62 -1594.71,-772.24 -239.71,-144.04 -462.63,-307.75 -688.52,-476.75 -102.08,-76.38 -231.28,-171.83 -323.92,-258.7 -576.42,-540.26 -899.26,-812.08 -1407.23,-1578.78 -619.79,-935.44 -1152.69,-2063.74 -1322.74,-3411.18 -187.7,-1487.18 31.93,-2838.11 478.81,-4016.7 326.67,-861.61 774.18,-1522 1326.48,-2205.74l554.49 -613.56c176.37,-73.86 114.63,-71.96 260.94,-209.8 646.99,-609.45 1792.83,-1211.9 2654.63,-1532.91 561.94,-209.34 1733.1,-478.58 2329.18,-478.58 664.33,0 1326.6,-5.1 1863.32,99.24 1184.14,230.26 1820.65,459.18 2890.7,1042.12 210.11,114.46 416.87,246.68 600.81,382.37 179.31,132.31 408.94,295.47 559.13,442.66 82.33,92.39 21.65,-13.57 54.23,109.25 -154.69,103.58 -276.13,340.86 -407.56,467.67l-92.56 78.54c-213.85,-273.07 -900.54,-654.78 -1232.42,-852.91 -847.27,-505.81 -1858.13,-776.41 -2848.93,-901.75 -135.74,-17.2 -338.17,-20.88 -501.17,-45.08 -380.67,-56.44 -1106.59,10.45 -1498.09,62.19 -41.93,5.52 -138.68,20.71 -219.77,34.45 -3.4,0.57 -120.64,24.9 -121.63,25.24 -9.49,3.09 -19.15,6.72 -27.99,10.15l-52.64 25.89c-6.04,2.89 -17.79,8.36 -25.27,14.59 -365.2,-37.31 -1536.43,449.49 -1833.88,594.47 -150.05,73.12 -239.84,138.77 -400.05,219.01 -237.26,118.79 -886.97,587.32 -1089.2,767.94l-618.92 582.76c-425.18,420.25 -735.33,923.85 -1040.32,1435.87 -135.57,227.56 -268.99,587.44 -370.59,834.55zm14381.04 -3899.09l0.53 0.23 -0.62 -0.26 0.09 0.03zm9.43 5.18c1.39,0.97 2.64,1.99 3.8,3.04 -1.16,-1.05 -2.41,-2.07 -3.8,-3.04zm5.02 4.23c2.86,2.88 5.1,6.11 6.68,9.8 -1.58,-3.69 -3.82,-6.92 -6.68,-9.8zm9.37 18.84c0.29,1.64 0.51,3.31 0.66,5.1l-0.66 -5.1zm415.89 -757.26c48.85,72.92 126.45,176.48 191.24,245.75 309.81,331.34 1303.19,1598.86 1374.62,1866.29l72.81 0c3.63,-162.12 277.37,-901.7 355.09,-1137.9 67.68,-205.66 128.06,-365.68 195.77,-568.94 47.18,-141.57 164.44,-431.16 177.45,-587.27 -108.34,51.96 -2082.35,182.07 -2366.98,182.07zm-4824.62 3714.31c70.21,44.96 107.3,71.56 163.57,109.22 -26.78,73.94 -13.38,37.03 -53.1,92.44 -57.65,80.47 -9.04,14.54 -66.38,77.29l-135.43 194.25 -182.09 145.82c-740.35,-495.75 -1236.81,-852.71 -2254.3,-950.14 -534.26,-51.17 -970.29,-28.16 -1451.42,84.77 -538.46,126.36 -1192.64,443.06 -1616.52,786.84 -81.68,66.21 -125.68,125.03 -207.73,192.83l-200.73 199.82c-132.46,155.77 -246.27,264.28 -365.8,435.32 -1559.06,2230.87 -312.93,5728.22 2973.96,6160.25 876.77,115.26 1879.41,-165.65 2569.78,-616.5 458.75,-299.59 888.52,-759.22 1179.41,-1223.98 112.99,-180.5 186.62,-370.3 283.75,-553.78 127.46,29.69 192.03,79.36 298.84,138.12 108.54,59.7 218.33,99.31 320.18,153.19 -31.5,135.26 -221.84,494.57 -298.02,612.34 -134.72,208.22 -249.41,359.6 -398.55,548.23 -532.36,673.43 -1391.33,1250.44 -2245.09,1469.19 -453.26,116.13 -1140.65,221.39 -1693.78,148.57 -311.28,-40.99 -520.49,-47.03 -786.55,-123.84 -116.53,-33.65 -246.21,-68.67 -368.1,-105.31 -345.85,-103.89 -645.43,-267.79 -939.88,-443.85 -3398.89,-2032.34 -2893.56,-7239.47 1098.29,-8392.48 1077.89,-311.31 2157.29,-254.62 3197.62,163.76 354.71,142.68 938.07,461.79 1178.07,697.63z"/>
   </clipPath>
 </defs>
 <g id="Camada_x0020_1">
  <metadata id="CorelCorpID_0Corel-Layer"/>
  <path class="fil0" d="M7902.2 7728.77l0 0c-358.91,824.27 -508.47,2223.7 -435.07,3126.31 59.53,731.98 252.98,1472.76 512.53,2109.32 291.74,715.53 707.74,1321.3 1175.84,1919.42 341.4,436.2 921.45,956.43 1383.17,1275.08 1770.39,1221.74 3782.65,1708.17 5936.4,1304.55 533.32,-99.92 930.14,-226.68 1378.81,-405.48 881.19,-351.15 1469.9,-752.17 2165.59,-1366.63 302.73,-267.4 594.69,-576.96 841.33,-906.57 454.7,-607.67 406.22,-632.6 696.88,-1075.55 113.04,-254.96 221.19,-457.05 333.02,-734.9 106.78,-265.28 183.67,-507.23 264.36,-828.06 168.01,-667.88 203.77,-1146.38 203.77,-1971.64 0,-953.85 -325.48,-2080.54 -655.47,-2704.18 -148.03,34.48 -2295.35,1211.56 -2695.17,1419.69 -153.42,79.87 -274.85,156.51 -448.64,243.23 -175.09,87.44 -308.28,164.75 -488.9,230.63l-1590.22 785.5c-255.16,114.1 -1229.93,589.79 -1331.73,598.26 60.69,-82.81 238.13,-167.98 348.4,-234.25l377.13 -239.15 1307.1 -770.71c131.07,-79.79 119.45,-33.07 188.7,-155.86 137.49,-2.72 198.72,-77.46 379.9,-186.51l727.31 -437.96c133.7,-87.91 254.11,-165.97 389.94,-233.26 215.52,-155.85 393.19,-190.76 469.23,-363.98 89.62,21.82 19.78,56.21 243.77,-83.41l583.45 -361.43c123.36,-85.73 53.46,12.78 119.56,-137.78 132.05,32.13 105.25,7.68 218.95,-71.23 78.82,-54.65 111.83,-70.8 202.63,-126.44l2484.53 -1557.47c127.43,-80.21 328.59,-176.4 407.61,-284.26 -38.53,-165.4 -314.6,-554.69 -426.34,-697.91l-279.67 -383.1c-88.28,-109.65 -83.75,-83.27 -131.51,-84.46 -28.45,-158.57 19.15,-55.79 -176.51,-296.95 -57.23,-70.52 -136.93,-166.19 -224.05,-191.13 -28.7,-138.68 -2.35,-78.19 -98.17,-179.88 -51.23,-54.37 -93.1,-87.74 -147.64,-142.08 -105.34,-105 -183.82,-208.58 -307.38,-282.22 -70.97,-117.46 -747.51,-654.98 -903.65,-764.46 -167.13,-117.23 -310.97,-229.23 -497.94,-339.58 -185.46,-109.48 -349.98,-243.01 -548.02,-316.11 -270.77,-252.94 -1485.77,-708.04 -1953.08,-860.7 -1365.44,-446.03 -3017,-581.8 -4459.19,-407.3 -195.35,23.66 -436.08,58.34 -625.6,102.7 -954.39,223.52 -746.04,159.15 -1679.55,468.9 -135.32,44.94 -403.45,171.78 -505.31,186.77l-1020.07 509.18c-783.58,405.04 -1742.73,1202.27 -2338.98,1848.7 -248.95,269.92 -295.02,290.52 -542.36,622.91l-328.23 436.45c-478.76,645.07 -1343.76,2351.14 -1451.03,3100.98 -85.76,280.89 -148.32,636.26 -202.94,962.16 -460.17,2745.21 221.44,5353.83 1857.17,7543.11 381.72,510.91 913.03,1070.95 1376.83,1499.93l620.69 508.14c240.74,179.73 430.57,315.19 688.7,476.57 123.16,76.98 198.86,140.73 332.96,213.26 386.99,209.34 746.24,423.56 1157.59,590.32 897.45,363.79 1651.31,602.68 2632.54,754.03 351.17,54.15 721.9,69.84 1050.61,114.66 1059.19,144.36 3019.41,-214.22 4000.35,-568.03 1048.23,-378.09 2125.08,-990.18 2919.99,-1631.84 219.86,-177.47 401.04,-332.85 598.46,-530.41 479.29,-479.66 662.12,-654.58 1080.7,-1213.4 92.73,-123.79 162.82,-209.94 246.97,-335.68 89.53,-133.79 144.72,-226.55 246.32,-371.78 59.04,-125.56 122.17,-208.89 183.45,-327.29 537.69,-1038.85 833.25,-1674.71 1089.23,-2952.83 200.11,-999.33 236.71,-2145.53 115.14,-3204.84 -40.03,-349.02 -111.6,-658.83 -156.88,-980.03 -70.43,-233.26 -105.62,-424.28 -169.42,-623.62 -67.06,-209.46 -110.41,-386.03 -186.63,-578.12l-436.99 -1092.4c-148.63,34.62 -638.49,345.77 -794.04,444.05 -154.66,97.75 -690.87,392.31 -771.79,502.72 90.35,387.81 478.1,937.6 645.12,2195.23 56.44,424.9 90.44,869.49 84.63,1338.47l-52.75 675.52c-28.42,199.8 -43.3,455.21 -94.35,612.43 -18.27,274.11 -204.08,938.33 -291.34,1166.51 -143.93,486.66 -484.17,1148.05 -739.75,1574.62 -164.16,273.97 -283.58,453.34 -467.17,698.1 -1293.19,1724.18 -3157.36,2667.78 -5294.7,3007.85 -1300.67,206.94 -2963.4,-2.89 -4173.74,-447.68 -599.94,-220.42 -1087.73,-467.62 -1594.71,-772.24 -239.71,-144.04 -462.63,-307.75 -688.52,-476.75 -102.08,-76.38 -231.28,-171.83 -323.92,-258.7 -576.42,-540.26 -899.26,-812.08 -1407.23,-1578.78 -619.79,-935.44 -1152.69,-2063.74 -1322.74,-3411.18 -187.7,-1487.18 31.93,-2838.11 478.81,-4016.7 326.67,-861.61 774.18,-1522 1326.48,-2205.74l554.49 -613.56c176.37,-73.86 114.63,-71.96 260.94,-209.8 646.99,-609.45 1792.83,-1211.9 2654.63,-1532.91 561.94,-209.34 1733.1,-478.58 2329.18,-478.58 664.33,0 1326.6,-5.1 1863.32,99.24 1184.14,230.26 1820.65,459.18 2890.7,1042.12 210.11,114.46 416.87,246.68 600.81,382.37 179.31,132.31 408.94,295.47 559.13,442.66 82.33,92.39 21.65,-13.57 54.23,109.25 -154.69,103.58 -276.13,340.86 -407.56,467.67l-92.56 78.54c-213.85,-273.07 -900.54,-654.78 -1232.42,-852.91 -847.27,-505.81 -1858.13,-776.41 -2848.93,-901.75 -135.74,-17.2 -338.17,-20.88 -501.17,-45.08 -380.67,-56.44 -1106.59,10.45 -1498.09,62.19 -41.93,5.52 -138.68,20.71 -219.77,34.45 -3.4,0.57 -120.64,24.9 -121.63,25.24 -9.49,3.09 -19.15,6.72 -27.99,10.15l-52.64 25.89c-6.04,2.89 -17.79,8.36 -25.27,14.59 -365.2,-37.31 -1536.43,449.49 -1833.88,594.47 -150.05,73.12 -239.84,138.77 -400.05,219.01 -237.26,118.79 -886.97,587.32 -1089.2,767.94l-618.92 582.76c-425.18,420.25 -735.33,923.85 -1040.32,1435.87 -135.57,227.56 -268.99,587.44 -370.59,834.55zm14381.04 -3899.09l0.53 0.23 -0.62 -0.26 0.09 0.03zm9.43 5.18c1.39,0.97 2.64,1.99 3.8,3.04 -1.16,-1.05 -2.41,-2.07 -3.8,-3.04zm5.02 4.23c2.86,2.88 5.1,6.11 6.68,9.8 -1.58,-3.69 -3.82,-6.92 -6.68,-9.8zm9.37 18.84c0.29,1.64 0.51,3.31 0.66,5.1l-0.66 -5.1zm415.89 -757.26c48.85,72.92 126.45,176.48 191.24,245.75 309.81,331.34 1303.19,1598.86 1374.62,1866.29l72.81 0c3.63,-162.12 277.37,-901.7 355.09,-1137.9 67.68,-205.66 128.06,-365.68 195.77,-568.94 47.18,-141.57 164.44,-431.16 177.45,-587.27 -108.34,51.96 -2082.35,182.07 -2366.98,182.07zm-4824.62 3714.31c70.21,44.96 107.3,71.56 163.57,109.22 -26.78,73.94 -13.38,37.03 -53.1,92.44 -57.65,80.47 -9.04,14.54 -66.38,77.29l-135.43 194.25 -182.09 145.82c-740.35,-495.75 -1236.81,-852.71 -2254.3,-950.14 -534.26,-51.17 -970.29,-28.16 -1451.42,84.77 -538.46,126.36 -1192.64,443.06 -1616.52,786.84 -81.68,66.21 -125.68,125.03 -207.73,192.83l-200.73 199.82c-132.46,155.77 -246.27,264.28 -365.8,435.32 -1559.06,2230.87 -312.93,5728.22 2973.96,6160.25 876.77,115.26 1879.41,-165.65 2569.78,-616.5 458.75,-299.59 888.52,-759.22 1179.41,-1223.98 112.99,-180.5 186.62,-370.3 283.75,-553.78 127.46,29.69 192.03,79.36 298.84,138.12 108.54,59.7 218.33,99.31 320.18,153.19 -31.5,135.26 -221.84,494.57 -298.02,612.34 -134.72,208.22 -249.41,359.6 -398.55,548.23 -532.36,673.43 -1391.33,1250.44 -2245.09,1469.19 -453.26,116.13 -1140.65,221.39 -1693.78,148.57 -311.28,-40.99 -520.49,-47.03 -786.55,-123.84 -116.53,-33.65 -246.21,-68.67 -368.1,-105.31 -345.85,-103.89 -645.43,-267.79 -939.88,-443.85 -3398.89,-2032.34 -2893.56,-7239.47 1098.29,-8392.48 1077.89,-311.31 2157.29,-254.62 3197.62,163.76 354.71,142.68 938.07,461.79 1178.07,697.63z"/>
  <g style="clip-path:url(#id0)">
   <g id="_1723489427008">
    <image x="-3750.48" y="-7568.83" width="37288.6" height="37288.6" xlink:href="favcon radar_Images\favcon radar_ImgID1.png"/>
   </g>
  </g>
  <path class="fil1" d="M7902.2 7728.77l0 0c-358.91,824.27 -508.47,2223.7 -435.07,3126.31 59.53,731.98 252.98,1472.76 512.53,2109.32 291.74,715.53 707.74,1321.3 1175.84,1919.42 341.4,436.2 921.45,956.43 1383.17,1275.08 1770.39,1221.74 3782.65,1708.17 5936.4,1304.55 533.32,-99.92 930.14,-226.68 1378.81,-405.48 881.19,-351.15 1469.9,-752.17 2165.59,-1366.63 302.73,-267.4 594.69,-576.96 841.33,-906.57 454.7,-607.67 406.22,-632.6 696.88,-1075.55 113.04,-254.96 221.19,-457.05 333.02,-734.9 106.78,-265.28 183.67,-507.23 264.36,-828.06 168.01,-667.88 203.77,-1146.38 203.77,-1971.64 0,-953.85 -325.48,-2080.54 -655.47,-2704.18 -148.03,34.48 -2295.35,1211.56 -2695.17,1419.69 -153.42,79.87 -274.85,156.51 -448.64,243.23 -175.09,87.44 -308.28,164.75 -488.9,230.63l-1590.22 785.5c-255.16,114.1 -1229.93,589.79 -1331.73,598.26 60.69,-82.81 238.13,-167.98 348.4,-234.25l377.13 -239.15 1307.1 -770.71c131.07,-79.79 119.45,-33.07 188.7,-155.86 137.49,-2.72 198.72,-77.46 379.9,-186.51l727.31 -437.96c133.7,-87.91 254.11,-165.97 389.94,-233.26 215.52,-155.85 393.19,-190.76 469.23,-363.98 89.62,21.82 19.78,56.21 243.77,-83.41l583.45 -361.43c123.36,-85.73 53.46,12.78 119.56,-137.78 132.05,32.13 105.25,7.68 218.95,-71.23 78.82,-54.65 111.83,-70.8 202.63,-126.44l2484.53 -1557.47c127.43,-80.21 328.59,-176.4 407.61,-284.26 -38.53,-165.4 -314.6,-554.69 -426.34,-697.91l-279.67 -383.1c-88.28,-109.65 -83.75,-83.27 -131.51,-84.46 -28.45,-158.57 19.15,-55.79 -176.51,-296.95 -57.23,-70.52 -136.93,-166.19 -224.05,-191.13 -28.7,-138.68 -2.35,-78.19 -98.17,-179.88 -51.23,-54.37 -93.1,-87.74 -147.64,-142.08 -105.34,-105 -183.82,-208.58 -307.38,-282.22 -70.97,-117.46 -747.51,-654.98 -903.65,-764.46 -167.13,-117.23 -310.97,-229.23 -497.94,-339.58 -185.46,-109.48 -349.98,-243.01 -548.02,-316.11 -270.77,-252.94 -1485.77,-708.04 -1953.08,-860.7 -1365.44,-446.03 -3017,-581.8 -4459.19,-407.3 -195.35,23.66 -436.08,58.34 -625.6,102.7 -954.39,223.52 -746.04,159.15 -1679.55,468.9 -135.32,44.94 -403.45,171.78 -505.31,186.77l-1020.07 509.18c-783.58,405.04 -1742.73,1202.27 -2338.98,1848.7 -248.95,269.92 -295.02,290.52 -542.36,622.91l-328.23 436.45c-478.76,645.07 -1343.76,2351.14 -1451.03,3100.98 -85.76,280.89 -148.32,636.26 -202.94,962.16 -460.17,2745.21 221.44,5353.83 1857.17,7543.11 381.72,510.91 913.03,1070.95 1376.83,1499.93l620.69 508.14c240.74,179.73 430.57,315.19 688.7,476.57 123.16,76.98 198.86,140.73 332.96,213.26 386.99,209.34 746.24,423.56 1157.59,590.32 897.45,363.79 1651.31,602.68 2632.54,754.03 351.17,54.15 721.9,69.84 1050.61,114.66 1059.19,144.36 3019.41,-214.22 4000.35,-568.03 1048.23,-378.09 2125.08,-990.18 2919.99,-1631.84 219.86,-177.47 401.04,-332.85 598.46,-530.41 479.29,-479.66 662.12,-654.58 1080.7,-1213.4 92.73,-123.79 162.82,-209.94 246.97,-335.68 89.53,-133.79 144.72,-226.55 246.32,-371.78 59.04,-125.56 122.17,-208.89 183.45,-327.29 537.69,-1038.85 833.25,-1674.71 1089.23,-2952.83 200.11,-999.33 236.71,-2145.53 115.14,-3204.84 -40.03,-349.02 -111.6,-658.83 -156.88,-980.03 -70.43,-233.26 -105.62,-424.28 -169.42,-623.62 -67.06,-209.46 -110.41,-386.03 -186.63,-578.12l-436.99 -1092.4c-148.63,34.62 -638.49,345.77 -794.04,444.05 -154.66,97.75 -690.87,392.31 -771.79,502.72 90.35,387.81 478.1,937.6 645.12,2195.23 56.44,424.9 90.44,869.49 84.63,1338.47l-52.75 675.52c-28.42,199.8 -43.3,455.21 -94.35,612.43 -18.27,274.11 -204.08,938.33 -291.34,1166.51 -143.93,486.66 -484.17,1148.05 -739.75,1574.62 -164.16,273.97 -283.58,453.34 -467.17,698.1 -1293.19,1724.18 -3157.36,2667.78 -5294.7,3007.85 -1300.67,206.94 -2963.4,-2.89 -4173.74,-447.68 -599.94,-220.42 -1087.73,-467.62 -1594.71,-772.24 -239.71,-144.04 -462.63,-307.75 -688.52,-476.75 -102.08,-76.38 -231.28,-171.83 -323.92,-258.7 -576.42,-540.26 -899.26,-812.08 -1407.23,-1578.78 -619.79,-935.44 -1152.69,-2063.74 -1322.74,-3411.18 -187.7,-1487.18 31.93,-2838.11 478.81,-4016.7 326.67,-861.61 774.18,-1522 1326.48,-2205.74l554.49 -613.56c176.37,-73.86 114.63,-71.96 260.94,-209.8 646.99,-609.45 1792.83,-1211.9 2654.63,-1532.91 561.94,-209.34 1733.1,-478.58 2329.18,-478.58 664.33,0 1326.6,-5.1 1863.32,99.24 1184.14,230.26 1820.65,459.18 2890.7,1042.12 210.11,114.46 416.87,246.68 600.81,382.37 179.31,132.31 408.94,295.47 559.13,442.66 82.33,92.39 21.65,-13.57 54.23,109.25 -154.69,103.58 -276.13,340.86 -407.56,467.67l-92.56 78.54c-213.85,-273.07 -900.54,-654.78 -1232.42,-852.91 -847.27,-505.81 -1858.13,-776.41 -2848.93,-901.75 -135.74,-17.2 -338.17,-20.88 -501.17,-45.08 -380.67,-56.44 -1106.59,10.45 -1498.09,62.19 -41.93,5.52 -138.68,20.71 -219.77,34.45 -3.4,0.57 -120.64,24.9 -121.63,25.24 -9.49,3.09 -19.15,6.72 -27.99,10.15l-52.64 25.89c-6.04,2.89 -17.79,8.36 -25.27,14.59 -365.2,-37.31 -1536.43,449.49 -1833.88,594.47 -150.05,73.12 -239.84,138.77 -400.05,219.01 -237.26,118.79 -886.97,587.32 -1089.2,767.94l-618.92 582.76c-425.18,420.25 -735.33,923.85 -1040.32,1435.87 -135.57,227.56 -268.99,587.44 -370.59,834.55zm14381.04 -3899.09l0.53 0.23 -0.62 -0.26 0.09 0.03zm9.43 5.18c1.39,0.97 2.64,1.99 3.8,3.04 -1.16,-1.05 -2.41,-2.07 -3.8,-3.04zm5.02 4.23c2.86,2.88 5.1,6.11 6.68,9.8 -1.58,-3.69 -3.82,-6.92 -6.68,-9.8zm9.37 18.84c0.29,1.64 0.51,3.31 0.66,5.1l-0.66 -5.1zm415.89 -757.26c48.85,72.92 126.45,176.48 191.24,245.75 309.81,331.34 1303.19,1598.86 1374.62,1866.29l72.81 0c3.63,-162.12 277.37,-901.7 355.09,-1137.9 67.68,-205.66 128.06,-365.68 195.77,-568.94 47.18,-141.57 164.44,-431.16 177.45,-587.27 -108.34,51.96 -2082.35,182.07 -2366.98,182.07zm-4824.62 3714.31c70.21,44.96 107.3,71.56 163.57,109.22 -26.78,73.94 -13.38,37.03 -53.1,92.44 -57.65,80.47 -9.04,14.54 -66.38,77.29l-135.43 194.25 -182.09 145.82c-740.35,-495.75 -1236.81,-852.71 -2254.3,-950.14 -534.26,-51.17 -970.29,-28.16 -1451.42,84.77 -538.46,126.36 -1192.64,443.06 -1616.52,786.84 -81.68,66.21 -125.68,125.03 -207.73,192.83l-200.73 199.82c-132.46,155.77 -246.27,264.28 -365.8,435.32 -1559.06,2230.87 -312.93,5728.22 2973.96,6160.25 876.77,115.26 1879.41,-165.65 2569.78,-616.5 458.75,-299.59 888.52,-759.22 1179.41,-1223.98 112.99,-180.5 186.62,-370.3 283.75,-553.78 127.46,29.69 192.03,79.36 298.84,138.12 108.54,59.7 218.33,99.31 320.18,153.19 -31.5,135.26 -221.84,494.57 -298.02,612.34 -134.72,208.22 -249.41,359.6 -398.55,548.23 -532.36,673.43 -1391.33,1250.44 -2245.09,1469.19 -453.26,116.13 -1140.65,221.39 -1693.78,148.57 -311.28,-40.99 -520.49,-47.03 -786.55,-123.84 -116.53,-33.65 -246.21,-68.67 -368.1,-105.31 -345.85,-103.89 -645.43,-267.79 -939.88,-443.85 -3398.89,-2032.34 -2893.56,-7239.47 1098.29,-8392.48 1077.89,-311.31 2157.29,-254.62 3197.62,163.76 354.71,142.68 938.07,461.79 1178.07,697.63z"/>
 </g>
</svg>
