<?xml version="1.0" encoding="UTF-8"?>
<!DOCTYPE svg PUBLIC "-//W3C//DTD SVG 1.1//EN" "http://www.w3.org/Graphics/SVG/1.1/DTD/svg11.dtd">
<!-- Creator: CorelDRAW (Versão de avaliação) -->
<svg xmlns="http://www.w3.org/2000/svg" xml:space="preserve" width="297mm" height="210mm" version="1.1" style="shape-rendering:geometricPrecision; text-rendering:geometricPrecision; image-rendering:optimizeQuality; fill-rule:evenodd; clip-rule:evenodd"
viewBox="0 0 29700 21000"
 xmlns:xlink="http://www.w3.org/1999/xlink"
 xmlns:xodm="http://www.corel.com/coreldraw/odm/2003">
 <defs>
  <style type="text/css">
   <![CDATA[
    .fil0 {fill:white}
   ]]>
  </style>
 </defs>
 <g id="Camada_x0020_1">
  <metadata id="CorelCorpID_0Corel-Layer"/>
  <g id="_1833486782112">
   <path class="fil0" d="M4537.36 10994.92c2760.45,-633.27 3397.28,3492.1 877.69,3980.3 -2679.72,519.22 -3514.3,-3375.44 -877.69,-3980.3zm-3707.71 1525.71l0 898.91c95.13,219.79 103.54,535.82 181.08,784.81 547.57,1758.24 2159.71,2971.03 4175.51,2904.67 2108.78,-69.42 3979.43,-1917.69 3929.92,-4105.49 -51.59,-2278.82 -1685.53,-3988.26 -3878.04,-4155.65 -1322.53,-100.96 -2296.47,458.7 -3024.34,1031.15 -502.01,394.81 -975.96,1178.17 -1191.4,1830.68 -81.52,246.87 -122.28,636.45 -192.73,810.92z"/>
   <path class="fil0" d="M18930.17 14287.28c-311.72,-12.4 -678.03,134.1 -979.98,211.39 -853.39,218.45 -1381.43,160.07 -578.37,1278.73 170.36,237.31 522.37,569.92 767.73,716.03 1941.35,1156.06 5618.76,778.18 5745.64,-1798.28 135.45,-2750.39 -3150.39,-2480.53 -4286.24,-2989.56 -770.59,-345.36 -266.29,-1374.14 1142.94,-1040.82 567.42,134.21 531.51,351.22 818.2,667.33 198.58,3.79 949.9,-255.44 1196.37,-329.44 557.27,-167.33 906.8,-134.79 532.19,-732.92 -1333.8,-2129.62 -5826.3,-1966 -6126.13,732.89 -256.57,2309.6 2121.93,2587.45 3559.25,2913.56 396.22,89.9 914.77,190.04 1031.73,553.54 262.79,816.82 -1191.58,1096.92 -2082.48,699.65 -489.02,-218.07 -490.64,-462.53 -740.85,-882.1z"/>
   <path class="fil0" d="M24659.85 7264.34l-18.56 6404.48c-7.57,2271.5 1604.06,3236.9 3505.63,3416.22 846.37,79.81 714.99,271.13 714.99,-1622.96 0,-475.13 -267.58,-293.81 -738.49,-399.95 -1542.55,-347.68 -1230.92,-1513.76 -1226.01,-3289.02l1.76 -614.84c378.87,0 757.82,-0.25 1136.76,0.01 953.82,0.65 825.59,293.55 825.59,-1588.33 0,-455.5 -412.18,-307.71 -825.59,-307.42 -379.17,0.26 -758.34,0 -1137.5,0 2.71,-527.96 73.76,-2041.6 -23.94,-2425.27 -558.94,-84.18 -1280.47,-35.31 -1861.48,-34.05 -398.94,0 -352.27,81.55 -353.16,461.13z"/>
   <path class="fil0" d="M10036.93 5932.21l0 10554.59c0,290.74 27.2,332.91 322.61,332.91l1588.31 0c436.84,0 340.55,-42 341.07,-1101.45l4.82 -9786.05c0.02,-287.96 -46.72,-332.91 -345.89,-332.91l-1588.31 0c-288.38,0 -322.61,49.83 -322.61,332.91z"/>
   <path class="fil0" d="M13641.78 9313.77l0 7173.03c0,273.34 18.11,332.91 304.27,332.91 544.72,0 1429.25,32.13 1933.45,-29.81 142.86,-743.74 48,-6267.48 47.08,-7476.13 0,-288.84 -49.04,-345.86 -340.98,-345.86l-1588.31 0c-306.71,0 -355.51,32.69 -355.51,345.86z"/>
   <path class="fil0" d="M13555.61 5406.39c217.84,526.11 533.19,987.01 1256.36,968.17 665.03,-17.31 1061.8,-456.02 1206.71,-1018.62 10.79,-406.69 -16.84,-671.59 -233.02,-955.17 -264.5,-346.99 -361.97,-298.96 -762.81,-518l-532.66 0 -419.05 227.19c-152.75,96.03 -211.71,152.02 -312.22,302.95 -235.73,353.97 -222.5,524.69 -203.31,993.48z"/>
   <path class="fil0" d="M13555.61 5406.39c-47.39,458.3 -71.83,1224.09 124.19,1611.89 445.74,881.78 1739.89,909.38 2210.37,-13.6 203.51,-399.23 161.82,-1153.85 128.51,-1648.74 -144.91,562.6 -541.68,1001.31 -1206.71,1018.62 -723.17,18.84 -1038.52,-442.06 -1256.36,-968.17z"/>
  </g>
 </g>
</svg>
